<svg width="209" height="39" viewBox="0 0 209 39" fill="none" xmlns="http://www.w3.org/2000/svg">
<g filter="url(#filter0_d_2110_2136)">
<path d="M34 7.35898L30.4779 7.29676L28.692 4.40939L27.8083 7.76347L24 8.41685L27.4599 9.87921L27.771 10.0099L27.0367 13.1835L29.1898 11.2731L32.687 13.1835L31.2744 9.3316L34 7.35898Z" fill="#E43A12"/>
<path d="M7.19731 5.03806L9.60556 13.3426L4 19.6955L12.6783 19.3633L16.8306 28L18.2008 18.8651V18.0346L26.2977 17.4948L20.1939 13.7162L22.1869 4L13.8824 10.1453L7.19731 5.03806Z" fill="#E43A12"/>
<path d="M11.0655 29.625L9.79762 27.4881L10.8809 25.3452L8.52976 26.0536L6.74404 24L7.14284 26.625L7.17857 26.8571L5 27.5952L6.94046 28.1905L7.08927 31L8.87499 28.7321L11.0655 29.625Z" fill="#E43A12"/>
<path d="M24.7911 22.3185L25.387 24.3733L24 25.9452L26.1473 25.863L27.1747 28L27.4213 25.6884V25.4829L29.4247 25.339L27.9144 24.4144L28.4075 22L26.3528 23.5308L24.7911 22.3185Z" fill="#E43A12"/>
</g>
<g filter="url(#filter1_d_2110_2136)">
<path d="M43.8984 10.2422C43.638 10.1641 43.4818 9.99479 43.4297 9.73438C43.3646 9.55208 43.3841 9.35677 43.4883 9.14844C43.5924 8.92708 43.7552 8.80339 43.9766 8.77734C45.2396 8.58203 46.5026 8.47786 47.7656 8.46484C49.0417 8.4388 50.3177 8.41927 51.5938 8.40625C51.8411 8.40625 52.0299 8.48438 52.1602 8.64062C52.2904 8.79688 52.3555 8.97266 52.3555 9.16797C52.3555 9.36328 52.2904 9.54557 52.1602 9.71484C52.0299 9.87109 51.8411 9.94922 51.5938 9.94922C50.5781 9.97526 49.556 9.98828 48.5273 9.98828C47.4987 9.98828 46.4701 10.0404 45.4414 10.1445C45.4674 10.6654 45.5 11.1862 45.5391 11.707C45.5781 12.2148 45.6172 12.7292 45.6562 13.25C46.6458 13.1979 47.6289 13.1328 48.6055 13.0547C49.5951 12.9766 50.5846 12.9635 51.5742 13.0156C51.8216 13.0286 52.0104 13.1198 52.1406 13.2891C52.2708 13.4583 52.3359 13.6406 52.3359 13.8359C52.3359 14.0312 52.2708 14.207 52.1406 14.3633C52.0104 14.5195 51.8216 14.5911 51.5742 14.5781C50.5977 14.526 49.6276 14.5391 48.6641 14.6172C47.7135 14.6953 46.75 14.7604 45.7734 14.8125C45.8516 15.75 45.9232 16.6875 45.9883 17.625C46.0664 18.5495 46.1185 19.4805 46.1445 20.418C46.6003 20.3138 47.0625 20.2161 47.5312 20.125C48 20.0208 48.4688 19.9427 48.9375 19.8906C49.4062 19.8255 49.875 19.793 50.3438 19.793C50.8125 19.793 51.2812 19.832 51.75 19.9102C51.9583 19.9492 52.1146 20.0729 52.2188 20.2812C52.3229 20.4896 52.349 20.6849 52.2969 20.8672C52.2318 21.0885 52.1081 21.2448 51.9258 21.3359C51.7435 21.4271 51.5417 21.4531 51.3203 21.4141C50.9036 21.3359 50.4805 21.3099 50.0508 21.3359C49.6211 21.362 49.1979 21.4076 48.7812 21.4727C48.2995 21.5508 47.8177 21.6419 47.3359 21.7461C46.8672 21.8503 46.3984 21.9609 45.9297 22.0781C45.7083 22.1302 45.5 22.0911 45.3047 21.9609C45.1224 21.9349 44.9596 21.8633 44.8164 21.7461C44.6732 21.6289 44.6016 21.4531 44.6016 21.2188C44.5755 20.112 44.5234 19.0182 44.4453 17.9375C44.3802 16.8568 44.3021 15.7695 44.2109 14.6758C44.0677 14.5326 43.9831 14.3568 43.957 14.1484C43.944 13.9271 44.0026 13.7383 44.1328 13.582C44.0286 12.4753 43.9505 11.362 43.8984 10.2422ZM54.7773 17.6641C54.4388 17.4167 54.1979 17.1107 54.0547 16.7461C53.9115 16.3685 53.9049 15.9714 54.0352 15.5547C54.1654 15.1771 54.3672 14.8385 54.6406 14.5391C54.9141 14.2396 55.2266 13.9987 55.5781 13.8164C55.9688 13.6081 56.3854 13.4453 56.8281 13.3281C57.2708 13.2109 57.7201 13.1458 58.1758 13.1328C58.6315 13.1198 59.0807 13.1654 59.5234 13.2695C59.9792 13.3607 60.4089 13.5104 60.8125 13.7188C61.0339 13.8359 61.1576 13.9922 61.1836 14.1875C61.2096 14.3828 61.1706 14.5651 61.0664 14.7344C60.9753 14.9036 60.832 15.0273 60.6367 15.1055C60.4414 15.1836 60.2331 15.1641 60.0117 15.0469C59.6992 14.8776 59.3477 14.7669 58.957 14.7148C58.5664 14.6628 58.1693 14.6628 57.7656 14.7148C57.375 14.7539 57.0039 14.8516 56.6523 15.0078C56.3008 15.1641 56.0078 15.3659 55.7734 15.6133C55.7083 15.6784 55.6628 15.724 55.6367 15.75C55.6237 15.776 55.5977 15.8346 55.5586 15.9258L55.5195 16.1406C55.5586 16.2578 55.5911 16.3294 55.6172 16.3555C55.8776 16.5247 56.1445 16.6354 56.418 16.6875C56.7044 16.7266 56.9909 16.7526 57.2773 16.7656C57.681 16.7917 58.0911 16.8177 58.5078 16.8438C58.9375 16.8568 59.3477 16.9089 59.7383 17C60.1419 17.0911 60.513 17.2409 60.8516 17.4492C61.1901 17.6576 61.4766 17.9635 61.7109 18.3672C61.9714 18.8229 62.0885 19.2982 62.0625 19.793C62.0495 20.2747 61.8607 20.7109 61.4961 21.1016C61.1315 21.4922 60.7083 21.7656 60.2266 21.9219C59.7448 22.0651 59.2565 22.1693 58.7617 22.2344C58.319 22.2865 57.8568 22.2995 57.375 22.2734C56.9062 22.2474 56.4505 22.1693 56.0078 22.0391C55.5781 21.9219 55.1745 21.7396 54.7969 21.4922C54.4193 21.2318 54.1068 20.8932 53.8594 20.4766C53.7422 20.2682 53.7227 20.0729 53.8008 19.8906C53.8789 19.6953 53.9961 19.5521 54.1523 19.4609C54.3216 19.3568 54.5039 19.3177 54.6992 19.3438C54.9076 19.3698 55.0768 19.487 55.207 19.6953C55.3893 19.9948 55.6432 20.2227 55.9688 20.3789C56.2943 20.5352 56.6458 20.6458 57.0234 20.7109C57.4141 20.763 57.8047 20.776 58.1953 20.75C58.5859 20.7109 58.9375 20.6589 59.25 20.5938C59.4193 20.5547 59.5885 20.5026 59.7578 20.4375C59.9401 20.3594 60.0898 20.2682 60.207 20.1641C60.3372 20.0599 60.4284 19.9427 60.4805 19.8125C60.5326 19.6693 60.526 19.513 60.4609 19.3438C60.3307 19.0182 60.1094 18.7839 59.7969 18.6406C59.4974 18.4974 59.1784 18.4128 58.8398 18.3867C58.5013 18.3607 58.1562 18.3477 57.8047 18.3477C57.4531 18.3477 57.1016 18.3346 56.75 18.3086C56.3984 18.2695 56.0534 18.2044 55.7148 18.1133C55.3763 18.0221 55.0638 17.8724 54.7773 17.6641ZM69.4844 15.1836C69.7318 15.1836 69.9141 15.2617 70.0312 15.418C70.1615 15.5742 70.2266 15.75 70.2266 15.9453C70.2266 16.1406 70.1615 16.3229 70.0312 16.4922C69.9141 16.6484 69.7318 16.7266 69.4844 16.7266C69.1719 16.7396 68.8594 16.7396 68.5469 16.7266C68.2474 16.7005 67.9479 16.6745 67.6484 16.6484C67.6615 17.6771 67.6419 18.7057 67.5898 19.7344C67.5508 20.763 67.4466 21.7852 67.2773 22.8008C67.2513 23.0221 67.1341 23.1849 66.9258 23.2891C66.7174 23.3932 66.5156 23.4128 66.3203 23.3477C66.099 23.2826 65.9427 23.1589 65.8516 22.9766C65.7734 22.8073 65.7539 22.612 65.793 22.3906C65.9492 21.401 66.0339 20.4115 66.0469 19.4219C66.0729 18.4323 66.0729 17.4362 66.0469 16.4336C65.5521 16.3555 65.0508 16.2773 64.543 16.1992C64.0352 16.1081 63.5339 16.0299 63.0391 15.9648C62.8177 15.9388 62.6615 15.8216 62.5703 15.6133C62.4661 15.3919 62.4401 15.1901 62.4922 15.0078C62.5573 14.7865 62.681 14.6367 62.8633 14.5586C63.0456 14.4674 63.2409 14.4349 63.4492 14.4609C63.8789 14.526 64.3086 14.5977 64.7383 14.6758C65.168 14.7409 65.6042 14.806 66.0469 14.8711C66.0339 14.806 66.0273 14.7083 66.0273 14.5781C66.0273 13.4062 66.0208 12.2474 66.0078 11.1016C66.0078 9.95573 66.0664 8.79688 66.1836 7.625C66.2096 7.41667 66.2878 7.23438 66.418 7.07812C66.5612 6.92188 66.7435 6.84375 66.9648 6.84375C67.1602 6.84375 67.3424 6.92188 67.5117 7.07812C67.694 7.23438 67.7721 7.41667 67.7461 7.625C67.6159 8.875 67.5508 10.1185 67.5508 11.3555C67.5638 12.5794 67.5833 13.8229 67.6094 15.0859C67.9219 15.112 68.2344 15.138 68.5469 15.1641C68.8594 15.1771 69.1719 15.1836 69.4844 15.1836ZM71.5938 14.0508C71.6068 13.8034 71.6979 13.6211 71.8672 13.5039C72.0365 13.3737 72.2188 13.3086 72.4141 13.3086C72.6094 13.3086 72.7786 13.3737 72.9219 13.5039C73.0781 13.6211 73.1497 13.8034 73.1367 14.0508C73.1367 14.1289 73.1302 14.2135 73.1172 14.3047C73.1172 14.3828 73.1172 14.4609 73.1172 14.5391C73.5339 14.3307 73.9701 14.1549 74.4258 14.0117C74.8945 13.8555 75.3568 13.7578 75.8125 13.7188C76.2812 13.6797 76.7305 13.7188 77.1602 13.8359C77.6029 13.9401 78.0065 14.1484 78.3711 14.4609C78.5534 14.6302 78.6315 14.8125 78.6055 15.0078C78.5924 15.2031 78.5143 15.3724 78.3711 15.5156C78.2409 15.6458 78.0716 15.7305 77.8633 15.7695C77.6549 15.7956 77.4531 15.7305 77.2578 15.5742C77.1146 15.457 76.9518 15.3724 76.7695 15.3203C76.6003 15.2682 76.4115 15.2487 76.2031 15.2617C76.0078 15.2617 75.806 15.2812 75.5977 15.3203C75.4023 15.3594 75.2135 15.4049 75.0312 15.457C74.3411 15.6784 73.6966 15.9714 73.0977 16.3359C73.1237 16.974 73.1628 17.612 73.2148 18.25C73.2669 18.7839 73.3125 19.3372 73.3516 19.9102C73.3906 20.4701 73.5013 21.0039 73.6836 21.5117C73.7617 21.7461 73.7422 21.9414 73.625 22.0977C73.5208 22.2669 73.3711 22.3776 73.1758 22.4297C72.9935 22.4818 72.7982 22.4688 72.5898 22.3906C72.3945 22.3125 72.2578 22.1562 72.1797 21.9219C72.0755 21.6224 72.0039 21.3164 71.9648 21.0039C71.9258 20.6914 71.8867 20.3789 71.8477 20.0664C71.8216 19.7669 71.7891 19.4674 71.75 19.168C71.724 18.8555 71.6979 18.5495 71.6719 18.25C71.6068 17.5469 71.5612 16.8503 71.5352 16.1602C71.5221 15.457 71.5417 14.7539 71.5938 14.0508ZM80.0898 14.4219C80.3372 14.0833 80.6302 13.7839 80.9688 13.5234C81.3203 13.263 81.6914 13.0612 82.082 12.918C82.4727 12.7617 82.8763 12.6836 83.293 12.6836C83.7096 12.6706 84.1263 12.7487 84.543 12.918C84.9466 13.0742 85.3112 13.2891 85.6367 13.5625C85.9622 13.8229 86.2161 14.1615 86.3984 14.5781C86.5417 14.8906 86.6263 15.2292 86.6523 15.5938C86.6784 15.9583 86.5807 16.2904 86.3594 16.5898C86.1641 16.8633 85.9232 17.0716 85.6367 17.2148C85.3633 17.3581 85.0638 17.4622 84.7383 17.5273C84.4258 17.5924 84.1003 17.625 83.7617 17.625C83.4362 17.625 83.1237 17.6185 82.8242 17.6055C82.4857 17.5924 82.1471 17.5664 81.8086 17.5273C81.4831 17.4883 81.151 17.4492 80.8125 17.4102C80.9167 17.9961 81.125 18.5169 81.4375 18.9727C81.75 19.4284 82.1732 19.7734 82.707 20.0078C82.8503 20.0599 82.9609 20.099 83.0391 20.125C83.0781 20.138 83.1107 20.151 83.1367 20.1641C83.1758 20.1641 83.2148 20.1641 83.2539 20.1641C83.3581 20.1771 83.4427 20.1901 83.5078 20.2031C83.5859 20.2031 83.6576 20.1966 83.7227 20.1836C83.8138 20.1706 83.8724 20.1641 83.8984 20.1641C83.9375 20.151 83.9766 20.138 84.0156 20.125C84.1589 20.0859 84.2826 20.0404 84.3867 19.9883C84.5039 19.9362 84.6406 19.8516 84.7969 19.7344C84.875 19.6693 84.9792 19.5716 85.1094 19.4414C85.2396 19.3112 85.3503 19.194 85.4414 19.0898C85.5716 18.9076 85.7279 18.7839 85.9102 18.7188C86.1055 18.6536 86.3008 18.6797 86.4961 18.7969C86.6654 18.901 86.7826 19.0638 86.8477 19.2852C86.9258 19.4935 86.8997 19.6888 86.7695 19.8711C86.3919 20.3789 85.9427 20.8151 85.4219 21.1797C84.9141 21.5312 84.3281 21.7201 83.6641 21.7461C83.1302 21.7721 82.6159 21.681 82.1211 21.4727C81.6263 21.2513 81.1901 20.9583 80.8125 20.5938C80.3438 20.138 79.9727 19.6107 79.6992 19.0117C79.4258 18.4128 79.276 17.8008 79.25 17.1758C79.1328 17.0846 79.0417 16.974 78.9766 16.8438C78.9245 16.7005 78.9049 16.5573 78.918 16.4141C78.944 16.2708 78.9961 16.1406 79.0742 16.0234C79.1523 15.8932 79.2695 15.8086 79.4258 15.7695C79.569 15.2878 79.7904 14.8385 80.0898 14.4219ZM84.7773 14.8906C84.6341 14.7083 84.4128 14.5456 84.1133 14.4023C83.8659 14.2982 83.5729 14.2461 83.2344 14.2461C82.9089 14.2461 82.6289 14.3047 82.3945 14.4219C82.0951 14.5651 81.8281 14.7669 81.5938 15.0273C81.3594 15.2747 81.1706 15.5547 81.0273 15.8672C81.3398 15.9062 81.6523 15.9453 81.9648 15.9844C82.2773 16.0234 82.5898 16.0495 82.9023 16.0625C83.0716 16.0625 83.2409 16.0625 83.4102 16.0625C83.5794 16.0625 83.7487 16.056 83.918 16.043C83.9701 16.043 84.0156 16.043 84.0547 16.043C84.1068 16.0299 84.1589 16.0234 84.2109 16.0234C84.3281 15.9974 84.4128 15.9844 84.4648 15.9844C84.5299 15.9714 84.5951 15.9518 84.6602 15.9258C84.7122 15.9128 84.7773 15.8932 84.8555 15.8672C84.9206 15.8411 84.9596 15.8216 84.9727 15.8086C84.9857 15.7956 85.0052 15.7826 85.0312 15.7695L85.0898 15.5352C85.0638 15.4831 85.0443 15.4375 85.0312 15.3984C85.0312 15.3464 85.0182 15.3008 84.9922 15.2617C84.9792 15.2227 84.9466 15.1641 84.8945 15.0859C84.8555 15.0078 84.8164 14.9427 84.7773 14.8906ZM89.4844 6.66797C89.7188 6.66797 89.901 6.74609 90.0312 6.90234C90.1615 7.05859 90.2396 7.24089 90.2656 7.44922C90.3958 8.6862 90.4674 9.92318 90.4805 11.1602C90.4935 12.3971 90.474 13.6341 90.4219 14.8711C90.3828 16.1081 90.3177 17.3451 90.2266 18.582C90.1354 19.819 90.0443 21.0495 89.9531 22.2734C89.9271 22.4948 89.8424 22.6771 89.6992 22.8203C89.569 22.9766 89.3932 23.0547 89.1719 23.0547C88.9766 23.0547 88.7943 22.9766 88.625 22.8203C88.4557 22.6771 88.3776 22.4948 88.3906 22.2734C88.4818 21.0495 88.5729 19.819 88.6641 18.582C88.7682 17.3451 88.8398 16.1081 88.8789 14.8711C88.931 13.6341 88.9505 12.3971 88.9375 11.1602C88.9245 9.92318 88.8529 8.6862 88.7227 7.44922C88.6966 7.24089 88.7682 7.05859 88.9375 6.90234C89.1068 6.74609 89.2891 6.66797 89.4844 6.66797ZM93.8789 21.4727C93.4362 21.2773 93.0846 21.0104 92.8242 20.6719C92.5768 20.3203 92.401 19.9362 92.2969 19.5195C92.2057 19.1029 92.1797 18.6732 92.2188 18.2305C92.2578 17.7747 92.349 17.3385 92.4922 16.9219C92.6094 16.5964 92.7396 16.2578 92.8828 15.9062C93.0391 15.5547 93.2214 15.2292 93.4297 14.9297C93.638 14.6302 93.8854 14.3763 94.1719 14.168C94.4583 13.9466 94.7969 13.8034 95.1875 13.7383C95.5911 13.6732 95.9948 13.6536 96.3984 13.6797C96.8151 13.6927 97.2253 13.7318 97.6289 13.7969C97.8112 13.8229 97.987 13.8685 98.1562 13.9336C98.3255 13.9857 98.4948 14.0443 98.6641 14.1094C98.6771 13.9141 98.7617 13.7513 98.918 13.6211C99.0872 13.4909 99.263 13.4258 99.4453 13.4258C99.6667 13.4258 99.8424 13.5039 99.9727 13.6602C100.116 13.8034 100.201 13.9792 100.227 14.1875C100.292 14.7865 100.318 15.3854 100.305 15.9844C100.305 16.5833 100.285 17.1823 100.246 17.7812C100.22 18.3802 100.194 18.9792 100.168 19.5781C100.155 20.1771 100.161 20.776 100.188 21.375C100.201 21.6224 100.122 21.8112 99.9531 21.9414C99.7969 22.0586 99.6211 22.1172 99.4258 22.1172C99.2305 22.1172 99.0482 22.0586 98.8789 21.9414C98.7227 21.8112 98.638 21.6224 98.625 21.375C97.8828 21.6875 97.0951 21.8698 96.2617 21.9219C95.4284 21.9609 94.6341 21.8112 93.8789 21.4727ZM94.0156 17.2344C93.9375 17.4688 93.8659 17.7357 93.8008 18.0352C93.7357 18.3346 93.7161 18.6211 93.7422 18.8945C93.7682 19.168 93.8529 19.4219 93.9961 19.6562C94.1393 19.8776 94.3737 20.0339 94.6992 20.125C95.3633 20.3333 96.0273 20.3919 96.6914 20.3008C97.3685 20.2096 98 19.9753 98.5859 19.5977C98.638 18.9596 98.6771 18.3411 98.7031 17.7422C98.7422 17.1432 98.7552 16.5378 98.7422 15.9258C98.5208 15.7826 98.293 15.6589 98.0586 15.5547C97.8372 15.4375 97.5898 15.3594 97.3164 15.3203C97.043 15.2812 96.75 15.2552 96.4375 15.2422C96.138 15.2161 95.8451 15.2161 95.5586 15.2422C95.5326 15.2422 95.4609 15.2617 95.3438 15.3008C95.2396 15.3268 95.181 15.3464 95.168 15.3594C95.0378 15.4245 94.9206 15.5286 94.8164 15.6719C94.6471 15.9062 94.4974 16.1602 94.3672 16.4336C94.237 16.694 94.1198 16.9609 94.0156 17.2344ZM102.922 17.6641C102.583 17.4167 102.342 17.1107 102.199 16.7461C102.056 16.3685 102.049 15.9714 102.18 15.5547C102.31 15.1771 102.512 14.8385 102.785 14.5391C103.059 14.2396 103.371 13.9987 103.723 13.8164C104.113 13.6081 104.53 13.4453 104.973 13.3281C105.415 13.2109 105.865 13.1458 106.32 13.1328C106.776 13.1198 107.225 13.1654 107.668 13.2695C108.124 13.3607 108.553 13.5104 108.957 13.7188C109.178 13.8359 109.302 13.9922 109.328 14.1875C109.354 14.3828 109.315 14.5651 109.211 14.7344C109.12 14.9036 108.977 15.0273 108.781 15.1055C108.586 15.1836 108.378 15.1641 108.156 15.0469C107.844 14.8776 107.492 14.7669 107.102 14.7148C106.711 14.6628 106.314 14.6628 105.91 14.7148C105.52 14.7539 105.148 14.8516 104.797 15.0078C104.445 15.1641 104.152 15.3659 103.918 15.6133C103.853 15.6784 103.807 15.724 103.781 15.75C103.768 15.776 103.742 15.8346 103.703 15.9258L103.664 16.1406C103.703 16.2578 103.736 16.3294 103.762 16.3555C104.022 16.5247 104.289 16.6354 104.562 16.6875C104.849 16.7266 105.135 16.7526 105.422 16.7656C105.826 16.7917 106.236 16.8177 106.652 16.8438C107.082 16.8568 107.492 16.9089 107.883 17C108.286 17.0911 108.658 17.2409 108.996 17.4492C109.335 17.6576 109.621 17.9635 109.855 18.3672C110.116 18.8229 110.233 19.2982 110.207 19.793C110.194 20.2747 110.005 20.7109 109.641 21.1016C109.276 21.4922 108.853 21.7656 108.371 21.9219C107.889 22.0651 107.401 22.1693 106.906 22.2344C106.464 22.2865 106.001 22.2995 105.52 22.2734C105.051 22.2474 104.595 22.1693 104.152 22.0391C103.723 21.9219 103.319 21.7396 102.941 21.4922C102.564 21.2318 102.251 20.8932 102.004 20.4766C101.887 20.2682 101.867 20.0729 101.945 19.8906C102.023 19.6953 102.141 19.5521 102.297 19.4609C102.466 19.3568 102.648 19.3177 102.844 19.3438C103.052 19.3698 103.221 19.487 103.352 19.6953C103.534 19.9948 103.788 20.2227 104.113 20.3789C104.439 20.5352 104.79 20.6458 105.168 20.7109C105.559 20.763 105.949 20.776 106.34 20.75C106.73 20.7109 107.082 20.6589 107.395 20.5938C107.564 20.5547 107.733 20.5026 107.902 20.4375C108.085 20.3594 108.234 20.2682 108.352 20.1641C108.482 20.0599 108.573 19.9427 108.625 19.8125C108.677 19.6693 108.671 19.513 108.605 19.3438C108.475 19.0182 108.254 18.7839 107.941 18.6406C107.642 18.4974 107.323 18.4128 106.984 18.3867C106.646 18.3607 106.301 18.3477 105.949 18.3477C105.598 18.3477 105.246 18.3346 104.895 18.3086C104.543 18.2695 104.198 18.2044 103.859 18.1133C103.521 18.0221 103.208 17.8724 102.922 17.6641ZM119.973 14.8711C120.441 14.5846 120.943 14.3372 121.477 14.1289C122.023 13.9206 122.577 13.8229 123.137 13.8359C123.085 12.7292 123.039 11.6289 123 10.5352C122.974 9.44141 122.954 8.34115 122.941 7.23438C122.941 6.98698 123.02 6.80469 123.176 6.6875C123.332 6.55729 123.508 6.49219 123.703 6.49219C123.898 6.49219 124.074 6.55729 124.23 6.6875C124.4 6.80469 124.484 6.98698 124.484 7.23438C124.497 8.52344 124.53 9.81901 124.582 11.1211C124.634 12.4102 124.686 13.6992 124.738 14.9883C124.79 16.2773 124.829 17.5729 124.855 18.875C124.882 20.1641 124.875 21.4531 124.836 22.7422C124.823 22.9896 124.732 23.1784 124.562 23.3086C124.393 23.4388 124.211 23.5039 124.016 23.5039C123.82 23.5039 123.645 23.4388 123.488 23.3086C123.332 23.1914 123.26 23.0026 123.273 22.7422C123.273 22.651 123.273 22.5599 123.273 22.4688C123.273 22.3776 123.28 22.2865 123.293 22.1953C123.163 22.1823 123.033 22.1693 122.902 22.1562C122.785 22.1562 122.668 22.1562 122.551 22.1562C122.395 22.1562 122.238 22.1562 122.082 22.1562C121.926 22.1562 121.776 22.1497 121.633 22.1367C121.294 22.1107 120.956 22.0781 120.617 22.0391C120.279 22 119.947 21.9219 119.621 21.8047C119.296 21.6745 118.99 21.5182 118.703 21.3359C118.417 21.1406 118.182 20.8867 118 20.5742C117.792 20.2487 117.616 19.8971 117.473 19.5195C117.342 19.1419 117.29 18.7513 117.316 18.3477C117.342 17.944 117.434 17.5729 117.59 17.2344C117.746 16.8958 117.941 16.5833 118.176 16.2969C118.423 16.0104 118.697 15.75 118.996 15.5156C119.309 15.2812 119.634 15.0664 119.973 14.8711ZM123.312 20.6523C123.312 18.9076 123.273 17.1562 123.195 15.3984C122.766 15.3724 122.336 15.4505 121.906 15.6328C121.49 15.8021 121.105 15.9974 120.754 16.2188C120.559 16.3359 120.344 16.4727 120.109 16.6289C119.888 16.7721 119.68 16.9414 119.484 17.1367C119.302 17.319 119.152 17.5208 119.035 17.7422C118.918 17.9635 118.859 18.2044 118.859 18.4648C118.872 18.6992 118.924 18.9531 119.016 19.2266C119.107 19.487 119.23 19.7018 119.387 19.8711C119.543 20.0404 119.719 20.1706 119.914 20.2617C120.109 20.3398 120.318 20.4049 120.539 20.457C120.799 20.5091 121.047 20.5417 121.281 20.5547C121.529 20.5677 121.783 20.5807 122.043 20.5938C122.251 20.5938 122.46 20.6068 122.668 20.6328C122.876 20.6458 123.091 20.6523 123.312 20.6523ZM131.613 12.9961C132.03 12.944 132.466 12.931 132.922 12.957C133.378 12.9701 133.814 13.0482 134.23 13.1914C134.647 13.3216 135.025 13.5234 135.363 13.7969C135.702 14.0703 135.962 14.4284 136.145 14.8711C136.275 15.1836 136.34 15.5026 136.34 15.8281C136.353 16.1406 136.307 16.4466 136.203 16.7461C136.112 17.0326 135.969 17.3125 135.773 17.5859C135.591 17.8464 135.376 18.0872 135.129 18.3086C134.595 18.7904 134.009 19.2005 133.371 19.5391C132.733 19.8776 132.062 20.138 131.359 20.3203C131.06 20.3984 130.747 20.4701 130.422 20.5352C130.109 20.5872 129.79 20.6133 129.465 20.6133C129.139 20.6133 128.82 20.5807 128.508 20.5156C128.195 20.4375 127.902 20.3138 127.629 20.1445C127.434 20.0273 127.316 19.8711 127.277 19.6758C127.199 19.4544 127.115 19.2461 127.023 19.0508C126.932 18.8555 126.841 18.6536 126.75 18.4453C126.672 18.237 126.607 18.0286 126.555 17.8203C126.503 17.612 126.477 17.3971 126.477 17.1758C126.477 16.7331 126.568 16.3164 126.75 15.9258C126.945 15.5221 127.206 15.1706 127.531 14.8711C128.078 14.3503 128.71 13.9336 129.426 13.6211C130.142 13.3086 130.871 13.1003 131.613 12.9961ZM133.82 14.6758C133.469 14.5456 133.091 14.4805 132.688 14.4805C132.258 14.4674 131.828 14.513 131.398 14.6172C130.969 14.7083 130.559 14.8385 130.168 15.0078C129.803 15.151 129.426 15.3529 129.035 15.6133C128.658 15.8607 128.378 16.1667 128.195 16.5312C128.091 16.7266 128.039 16.9284 128.039 17.1367C128.052 17.332 128.085 17.5339 128.137 17.7422C128.202 17.9375 128.28 18.1393 128.371 18.3477C128.475 18.543 128.566 18.7383 128.645 18.9336C128.853 18.9857 128.983 19.0117 129.035 19.0117C129.061 19.0247 129.094 19.0312 129.133 19.0312C129.172 19.0312 129.204 19.0312 129.23 19.0312C129.491 19.0573 129.725 19.0508 129.934 19.0117C130.077 19.0117 130.259 18.9857 130.48 18.9336C130.819 18.8685 131.145 18.7839 131.457 18.6797C131.77 18.5625 132.056 18.4388 132.316 18.3086C132.616 18.1654 132.909 18.0091 133.195 17.8398C133.482 17.6706 133.723 17.4948 133.918 17.3125C134.048 17.1953 134.172 17.0716 134.289 16.9414C134.354 16.8763 134.4 16.8242 134.426 16.7852C134.491 16.694 134.543 16.6289 134.582 16.5898C134.621 16.5378 134.654 16.4792 134.68 16.4141C134.732 16.3229 134.758 16.2513 134.758 16.1992C134.771 16.1732 134.777 16.1406 134.777 16.1016C134.79 16.0625 134.803 16.0299 134.816 16.0039V15.7891C134.803 15.737 134.797 15.6979 134.797 15.6719C134.797 15.6458 134.79 15.6198 134.777 15.5938C134.738 15.5026 134.699 15.4375 134.66 15.3984C134.634 15.3464 134.602 15.2943 134.562 15.2422C134.576 15.2552 134.556 15.2357 134.504 15.1836C134.465 15.1315 134.439 15.099 134.426 15.0859L134.27 14.9297C134.204 14.8906 134.133 14.8451 134.055 14.793C133.977 14.7409 133.898 14.7018 133.82 14.6758ZM144.992 21.7461C144.992 21.9935 144.908 22.1758 144.738 22.293C144.582 22.4232 144.406 22.4883 144.211 22.4883C144.016 22.4883 143.84 22.4232 143.684 22.293C143.527 22.1758 143.449 21.9935 143.449 21.7461C143.449 20.7305 143.566 19.7539 143.801 18.8164C144.035 17.8789 144.328 16.9479 144.68 16.0234C144.589 15.8542 144.562 15.6654 144.602 15.457C144.68 15.1836 144.849 15.0143 145.109 14.9492C145.37 14.3242 145.637 13.7057 145.91 13.0938C146.197 12.4688 146.47 11.8438 146.73 11.2188C146.991 10.5938 147.232 9.96224 147.453 9.32422C147.674 8.6862 147.857 8.03516 148 7.37109C148.039 7.17578 148.117 7.00651 148.234 6.86328C148.365 6.72005 148.54 6.64844 148.762 6.64844C148.97 6.64844 149.159 6.72656 149.328 6.88281C149.497 7.02604 149.569 7.20833 149.543 7.42969C149.504 8.1849 149.517 8.88151 149.582 9.51953C149.647 10.1445 149.745 10.7695 149.875 11.3945C150.005 12.0065 150.148 12.625 150.305 13.25C150.474 13.862 150.63 14.474 150.773 15.0859C150.917 15.6719 151.047 16.2578 151.164 16.8438C151.281 17.4297 151.47 17.9961 151.73 18.543C151.861 18.8164 151.997 19.0833 152.141 19.3438C152.284 19.5911 152.44 19.8451 152.609 20.1055C152.766 20.3398 152.909 20.5872 153.039 20.8477C153.169 21.0951 153.26 21.3685 153.312 21.668C153.339 21.8763 153.306 22.0716 153.215 22.2539C153.137 22.4362 152.987 22.5599 152.766 22.625C152.583 22.6771 152.388 22.651 152.18 22.5469C151.971 22.4427 151.848 22.2865 151.809 22.0781C151.757 21.7786 151.652 21.5117 151.496 21.2773C151.353 21.043 151.203 20.8021 151.047 20.5547C150.865 20.2682 150.695 19.9818 150.539 19.6953C150.396 19.3958 150.266 19.0898 150.148 18.7773C150.018 18.4518 149.908 18.1263 149.816 17.8008C149.725 17.4622 149.641 17.1237 149.562 16.7852C148.977 16.7461 148.397 16.7201 147.824 16.707C147.264 16.681 146.698 16.6354 146.125 16.5703C145.812 17.4036 145.546 18.25 145.324 19.1094C145.116 19.9688 145.005 20.8477 144.992 21.7461ZM146.828 14.832C146.802 14.8711 146.783 14.9167 146.77 14.9688C146.77 15.0078 146.757 15.0469 146.73 15.0859C147.147 15.125 147.557 15.151 147.961 15.1641C148.365 15.1641 148.775 15.1771 149.191 15.2031C149.048 14.5781 148.892 13.9596 148.723 13.3477C148.566 12.7227 148.423 12.0911 148.293 11.4531C148.059 12.026 147.818 12.5924 147.57 13.1523C147.323 13.6992 147.076 14.2591 146.828 14.832ZM156.184 22.2539C156.001 22.319 155.799 22.2995 155.578 22.1953C155.37 22.0911 155.253 21.9349 155.227 21.7266C155.044 20.5807 154.927 19.4479 154.875 18.3281C154.836 17.1953 154.816 16.056 154.816 14.9102C154.816 14.7148 154.868 14.5586 154.973 14.4414C155.077 14.3242 155.201 14.2461 155.344 14.207C155.487 14.168 155.637 14.1615 155.793 14.1875C155.949 14.2135 156.079 14.2786 156.184 14.3828C156.483 14.1354 156.802 13.9206 157.141 13.7383C157.479 13.556 157.818 13.4388 158.156 13.3867C158.508 13.3216 158.853 13.3411 159.191 13.4453C159.53 13.5365 159.849 13.7383 160.148 14.0508C160.396 14.3112 160.611 14.5911 160.793 14.8906C160.975 15.1771 161.138 15.4831 161.281 15.8086C161.477 15.3138 161.75 14.8581 162.102 14.4414C162.453 14.0247 162.902 13.7448 163.449 13.6016C163.853 13.4974 164.172 13.5234 164.406 13.6797C164.641 13.8229 164.862 14.0508 165.07 14.3633C165.292 14.6888 165.493 15.0208 165.676 15.3594C165.871 15.6979 166.053 16.043 166.223 16.3945C166.392 16.7461 166.555 17.0977 166.711 17.4492C166.867 17.8008 167.023 18.1458 167.18 18.4844C167.362 18.862 167.518 19.2396 167.648 19.6172C167.792 19.9818 167.883 20.3724 167.922 20.7891C167.948 21.0104 167.87 21.1992 167.688 21.3555C167.518 21.4987 167.336 21.5703 167.141 21.5703C166.919 21.5703 166.737 21.4987 166.594 21.3555C166.464 21.1992 166.385 21.0104 166.359 20.7891C166.333 20.4766 166.249 20.1771 166.105 19.8906C165.975 19.5911 165.845 19.2982 165.715 19.0117C165.572 18.7122 165.428 18.4062 165.285 18.0938C165.155 17.7812 165.018 17.4753 164.875 17.1758C164.732 16.8763 164.576 16.5768 164.406 16.2773C164.25 15.9779 164.081 15.6849 163.898 15.3984C163.872 15.3594 163.846 15.3203 163.82 15.2812C163.794 15.2422 163.768 15.2031 163.742 15.1641C163.482 15.3073 163.293 15.444 163.176 15.5742C163.059 15.7044 162.948 15.8802 162.844 16.1016C162.753 16.2969 162.674 16.5052 162.609 16.7266C162.557 16.9349 162.512 17.1497 162.473 17.3711C162.395 17.7878 162.336 18.224 162.297 18.6797C162.271 19.0182 162.271 19.3438 162.297 19.6562C162.336 19.9688 162.323 20.2943 162.258 20.6328C162.219 20.8411 162.095 20.9974 161.887 21.1016C161.691 21.2057 161.496 21.2318 161.301 21.1797C161.118 21.1276 160.982 21.0365 160.891 20.9062C160.812 20.763 160.76 20.6003 160.734 20.418C160.682 20.0013 160.624 19.5716 160.559 19.1289C160.493 18.6862 160.409 18.25 160.305 17.8203C160.201 17.3776 160.064 16.9544 159.895 16.5508C159.738 16.1341 159.53 15.75 159.27 15.3984C159.087 15.1641 158.898 15.0078 158.703 14.9297C158.521 14.8516 158.293 14.8841 158.02 15.0273C157.72 15.1836 157.427 15.3724 157.141 15.5938C156.854 15.8151 156.6 16.0625 156.379 16.3359C156.392 17.1693 156.418 18.0026 156.457 18.8359C156.509 19.6562 156.6 20.4766 156.73 21.2969C156.757 21.5182 156.724 21.7201 156.633 21.9023C156.555 22.0716 156.405 22.1888 156.184 22.2539ZM170.52 21.4727C170.077 21.2773 169.725 21.0104 169.465 20.6719C169.217 20.3203 169.042 19.9362 168.938 19.5195C168.846 19.1029 168.82 18.6732 168.859 18.2305C168.898 17.7747 168.99 17.3385 169.133 16.9219C169.25 16.5964 169.38 16.2578 169.523 15.9062C169.68 15.5547 169.862 15.2292 170.07 14.9297C170.279 14.6302 170.526 14.3763 170.812 14.168C171.099 13.9466 171.438 13.8034 171.828 13.7383C172.232 13.6732 172.635 13.6536 173.039 13.6797C173.456 13.6927 173.866 13.7318 174.27 13.7969C174.452 13.8229 174.628 13.8685 174.797 13.9336C174.966 13.9857 175.135 14.0443 175.305 14.1094C175.318 13.9141 175.402 13.7513 175.559 13.6211C175.728 13.4909 175.904 13.4258 176.086 13.4258C176.307 13.4258 176.483 13.5039 176.613 13.6602C176.757 13.8034 176.841 13.9792 176.867 14.1875C176.932 14.7865 176.958 15.3854 176.945 15.9844C176.945 16.5833 176.926 17.1823 176.887 17.7812C176.861 18.3802 176.835 18.9792 176.809 19.5781C176.796 20.1771 176.802 20.776 176.828 21.375C176.841 21.6224 176.763 21.8112 176.594 21.9414C176.438 22.0586 176.262 22.1172 176.066 22.1172C175.871 22.1172 175.689 22.0586 175.52 21.9414C175.363 21.8112 175.279 21.6224 175.266 21.375C174.523 21.6875 173.736 21.8698 172.902 21.9219C172.069 21.9609 171.275 21.8112 170.52 21.4727ZM170.656 17.2344C170.578 17.4688 170.507 17.7357 170.441 18.0352C170.376 18.3346 170.357 18.6211 170.383 18.8945C170.409 19.168 170.493 19.4219 170.637 19.6562C170.78 19.8776 171.014 20.0339 171.34 20.125C172.004 20.3333 172.668 20.3919 173.332 20.3008C174.009 20.2096 174.641 19.9753 175.227 19.5977C175.279 18.9596 175.318 18.3411 175.344 17.7422C175.383 17.1432 175.396 16.5378 175.383 15.9258C175.161 15.7826 174.934 15.6589 174.699 15.5547C174.478 15.4375 174.23 15.3594 173.957 15.3203C173.684 15.2812 173.391 15.2552 173.078 15.2422C172.779 15.2161 172.486 15.2161 172.199 15.2422C172.173 15.2422 172.102 15.2617 171.984 15.3008C171.88 15.3268 171.822 15.3464 171.809 15.3594C171.678 15.4245 171.561 15.5286 171.457 15.6719C171.288 15.9062 171.138 16.1602 171.008 16.4336C170.878 16.694 170.76 16.9609 170.656 17.2344ZM178.957 20.125C178.957 19.5651 178.996 18.9987 179.074 18.4258C179.165 17.7357 179.257 17.0521 179.348 16.375C179.439 15.6849 179.478 14.9883 179.465 14.2852C179.465 14.0378 179.543 13.849 179.699 13.7188C179.855 13.5885 180.031 13.5234 180.227 13.5234C180.422 13.5234 180.604 13.5885 180.773 13.7188C180.943 13.849 181.027 14.0378 181.027 14.2852C181.535 14.2461 182.017 14.2266 182.473 14.2266C182.993 14.2396 183.436 14.3893 183.801 14.6758C184.165 14.9622 184.439 15.3464 184.621 15.8281C184.777 16.2708 184.868 16.7266 184.895 17.1953C184.921 17.6641 184.94 18.1328 184.953 18.6016C184.966 19.2656 184.986 19.9297 185.012 20.5938C185.038 21.2448 185.051 21.9023 185.051 22.5664C185.051 22.8268 184.966 23.0156 184.797 23.1328C184.641 23.263 184.465 23.3281 184.27 23.3281C184.087 23.3281 183.911 23.263 183.742 23.1328C183.586 23.0156 183.508 22.8268 183.508 22.5664C183.508 21.9414 183.495 21.3294 183.469 20.7305C183.456 20.1315 183.436 19.5195 183.41 18.8945C183.384 18.556 183.371 18.2109 183.371 17.8594C183.384 17.4948 183.358 17.1628 183.293 16.8633C183.254 16.681 183.215 16.5247 183.176 16.3945C183.137 16.2513 183.065 16.1146 182.961 15.9844C182.935 15.9323 182.876 15.8867 182.785 15.8477C182.707 15.8086 182.635 15.7891 182.57 15.7891C182.375 15.7891 182.193 15.8021 182.023 15.8281C181.854 15.8542 181.678 15.8932 181.496 15.9453C181.418 15.9714 181.34 15.9974 181.262 16.0234C181.184 16.0495 181.112 16.082 181.047 16.1211C180.917 16.5898 180.819 17.0391 180.754 17.4688C180.702 17.8854 180.65 18.3086 180.598 18.7383C180.559 19.0508 180.533 19.3698 180.52 19.6953C180.52 20.0078 180.507 20.3203 180.48 20.6328C180.467 20.9453 180.428 21.2578 180.363 21.5703C180.311 21.8828 180.214 22.1823 180.07 22.4688C179.953 22.6901 179.797 22.8138 179.602 22.8398C179.406 22.8789 179.224 22.8464 179.055 22.7422C178.898 22.651 178.775 22.5078 178.684 22.3125C178.605 22.1172 178.618 21.9089 178.723 21.6875C178.84 21.4531 178.905 21.1992 178.918 20.9258C178.931 20.6523 178.944 20.3854 178.957 20.125ZM187.238 21.6094C187.056 21.5443 186.9 21.4206 186.77 21.2383C186.652 21.043 186.633 20.8477 186.711 20.6523C186.932 20.0404 187.082 19.4219 187.16 18.7969C187.238 18.1719 187.29 17.5339 187.316 16.8828C187.329 16.6875 187.336 16.4987 187.336 16.3164C187.336 16.1211 187.342 15.9258 187.355 15.7305C187.316 15.5742 187.329 15.4245 187.395 15.2812C187.421 14.9036 187.447 14.526 187.473 14.1484C187.499 13.7578 187.538 13.3737 187.59 12.9961C187.655 12.4232 187.72 11.8568 187.785 11.2969C187.863 10.724 187.915 10.1445 187.941 9.55859C187.967 9.02474 187.993 8.4974 188.02 7.97656C188.059 7.44271 188.195 6.9349 188.43 6.45312C188.547 6.23177 188.703 6.10807 188.898 6.08203C189.094 6.04297 189.276 6.07552 189.445 6.17969C189.615 6.27083 189.738 6.41406 189.816 6.60938C189.908 6.80469 189.895 7.01302 189.777 7.23438C189.673 7.45573 189.602 7.68359 189.562 7.91797C189.523 8.15234 189.497 8.39323 189.484 8.64062C189.484 8.88802 189.484 9.13542 189.484 9.38281C189.484 9.63021 189.478 9.87109 189.465 10.1055C189.4 10.6914 189.335 11.2773 189.27 11.8633C189.204 12.4362 189.139 13.0156 189.074 13.6016C189.621 13.3281 190.227 13.1784 190.891 13.1523C191.411 13.1393 191.939 13.2305 192.473 13.4258C193.02 13.6081 193.462 13.9076 193.801 14.3242C193.996 14.5716 194.152 14.8451 194.27 15.1445C194.387 15.431 194.478 15.737 194.543 16.0625C194.621 16.375 194.673 16.694 194.699 17.0195C194.725 17.332 194.751 17.638 194.777 17.9375C194.816 18.5495 194.829 19.1615 194.816 19.7734C194.816 20.3724 194.803 20.9844 194.777 21.6094C194.777 21.8568 194.693 22.0391 194.523 22.1562C194.354 22.2865 194.172 22.3516 193.977 22.3516C193.781 22.3516 193.605 22.2865 193.449 22.1562C193.293 22.0391 193.221 21.8568 193.234 21.6094C193.247 21.0885 193.26 20.5677 193.273 20.0469C193.286 19.526 193.28 19.0052 193.254 18.4844C193.228 18.224 193.208 17.957 193.195 17.6836C193.182 17.4102 193.15 17.1367 193.098 16.8633C193.072 16.7331 193.046 16.6094 193.02 16.4922C193.007 16.362 192.98 16.2318 192.941 16.1016C192.928 15.9974 192.896 15.8867 192.844 15.7695C192.805 15.6523 192.779 15.5872 192.766 15.5742C192.74 15.5352 192.72 15.5026 192.707 15.4766C192.694 15.4375 192.674 15.3984 192.648 15.3594C192.531 15.2292 192.46 15.1576 192.434 15.1445C192.382 15.1055 192.336 15.0794 192.297 15.0664C192.258 15.0404 192.219 15.0143 192.18 14.9883C192.036 14.9102 191.874 14.8451 191.691 14.793C191.509 14.7409 191.333 14.7148 191.164 14.7148C190.721 14.6888 190.305 14.7669 189.914 14.9492C189.536 15.1315 189.198 15.4115 188.898 15.7891C188.872 16.6875 188.827 17.5794 188.762 18.4648C188.697 19.3372 188.508 20.2031 188.195 21.0625C188.13 21.2578 188.007 21.4141 187.824 21.5312C187.655 21.6484 187.46 21.6745 187.238 21.6094ZM198 21.4727C197.557 21.2773 197.206 21.0104 196.945 20.6719C196.698 20.3203 196.522 19.9362 196.418 19.5195C196.327 19.1029 196.301 18.6732 196.34 18.2305C196.379 17.7747 196.47 17.3385 196.613 16.9219C196.73 16.5964 196.861 16.2578 197.004 15.9062C197.16 15.5547 197.342 15.2292 197.551 14.9297C197.759 14.6302 198.007 14.3763 198.293 14.168C198.579 13.9466 198.918 13.8034 199.309 13.7383C199.712 13.6732 200.116 13.6536 200.52 13.6797C200.936 13.6927 201.346 13.7318 201.75 13.7969C201.932 13.8229 202.108 13.8685 202.277 13.9336C202.447 13.9857 202.616 14.0443 202.785 14.1094C202.798 13.9141 202.883 13.7513 203.039 13.6211C203.208 13.4909 203.384 13.4258 203.566 13.4258C203.788 13.4258 203.964 13.5039 204.094 13.6602C204.237 13.8034 204.322 13.9792 204.348 14.1875C204.413 14.7865 204.439 15.3854 204.426 15.9844C204.426 16.5833 204.406 17.1823 204.367 17.7812C204.341 18.3802 204.315 18.9792 204.289 19.5781C204.276 20.1771 204.283 20.776 204.309 21.375C204.322 21.6224 204.243 21.8112 204.074 21.9414C203.918 22.0586 203.742 22.1172 203.547 22.1172C203.352 22.1172 203.169 22.0586 203 21.9414C202.844 21.8112 202.759 21.6224 202.746 21.375C202.004 21.6875 201.216 21.8698 200.383 21.9219C199.549 21.9609 198.755 21.8112 198 21.4727ZM198.137 17.2344C198.059 17.4688 197.987 17.7357 197.922 18.0352C197.857 18.3346 197.837 18.6211 197.863 18.8945C197.889 19.168 197.974 19.4219 198.117 19.6562C198.26 19.8776 198.495 20.0339 198.82 20.125C199.484 20.3333 200.148 20.3919 200.812 20.3008C201.49 20.2096 202.121 19.9753 202.707 19.5977C202.759 18.9596 202.798 18.3411 202.824 17.7422C202.863 17.1432 202.876 16.5378 202.863 15.9258C202.642 15.7826 202.414 15.6589 202.18 15.5547C201.958 15.4375 201.711 15.3594 201.438 15.3203C201.164 15.2812 200.871 15.2552 200.559 15.2422C200.259 15.2161 199.966 15.2161 199.68 15.2422C199.654 15.2422 199.582 15.2617 199.465 15.3008C199.361 15.3268 199.302 15.3464 199.289 15.3594C199.159 15.4245 199.042 15.5286 198.938 15.6719C198.768 15.9062 198.618 16.1602 198.488 16.4336C198.358 16.694 198.241 16.9609 198.137 17.2344ZM202.492 12C202.219 12.1042 201.932 12.1367 201.633 12.0977C201.346 12.0456 201.086 11.9284 200.852 11.7461C200.669 11.6029 200.493 11.4466 200.324 11.2773C200.155 11.0951 199.953 10.9844 199.719 10.9453C199.497 10.9062 199.283 10.9453 199.074 11.0625C198.879 11.1797 198.71 11.3099 198.566 11.4531C198.384 11.6354 198.189 11.7135 197.98 11.6875C197.785 11.6615 197.616 11.5833 197.473 11.4531C197.342 11.3099 197.258 11.1406 197.219 10.9453C197.193 10.737 197.271 10.5417 197.453 10.3594C197.674 10.138 197.922 9.94922 198.195 9.79297C198.469 9.63672 198.755 9.52604 199.055 9.46094C199.367 9.38281 199.673 9.36979 199.973 9.42188C200.285 9.46094 200.585 9.5651 200.871 9.73438C201.118 9.90365 201.333 10.0859 201.516 10.2812C201.581 10.3464 201.639 10.4049 201.691 10.457C201.743 10.4961 201.802 10.5286 201.867 10.5547C201.945 10.5677 202.023 10.5482 202.102 10.4961C202.18 10.431 202.258 10.3594 202.336 10.2812C202.414 10.1901 202.486 10.099 202.551 10.0078C202.616 9.90365 202.668 9.82552 202.707 9.77344C202.85 9.60417 203.033 9.52604 203.254 9.53906C203.475 9.55208 203.658 9.63021 203.801 9.77344C203.97 9.92969 204.048 10.112 204.035 10.3203C204.022 10.5156 203.944 10.6979 203.801 10.8672C203.618 11.0885 203.43 11.3099 203.234 11.5312C203.039 11.7396 202.792 11.8958 202.492 12Z" fill="#292524"/>
</g>
<defs>
<filter id="filter0_d_2110_2136" x="-1" y="0" width="40" height="40" filterUnits="userSpaceOnUse" color-interpolation-filters="sRGB">
<feFlood flood-opacity="0" result="BackgroundImageFix"/>
<feColorMatrix in="SourceAlpha" type="matrix" values="0 0 0 0 0 0 0 0 0 0 0 0 0 0 0 0 0 0 127 0" result="hardAlpha"/>
<feOffset dy="4"/>
<feGaussianBlur stdDeviation="2"/>
<feComposite in2="hardAlpha" operator="out"/>
<feColorMatrix type="matrix" values="0 0 0 0 0 0 0 0 0 0 0 0 0 0 0 0 0 0 0.25 0"/>
<feBlend mode="normal" in2="BackgroundImageFix" result="effect1_dropShadow_2110_2136"/>
<feBlend mode="normal" in="SourceGraphic" in2="effect1_dropShadow_2110_2136" result="shape"/>
</filter>
<filter id="filter1_d_2110_2136" x="39.332" y="6.02344" width="169.113" height="25.4805" filterUnits="userSpaceOnUse" color-interpolation-filters="sRGB">
<feFlood flood-opacity="0" result="BackgroundImageFix"/>
<feColorMatrix in="SourceAlpha" type="matrix" values="0 0 0 0 0 0 0 0 0 0 0 0 0 0 0 0 0 0 127 0" result="hardAlpha"/>
<feOffset dy="4"/>
<feGaussianBlur stdDeviation="2"/>
<feComposite in2="hardAlpha" operator="out"/>
<feColorMatrix type="matrix" values="0 0 0 0 0 0 0 0 0 0 0 0 0 0 0 0 0 0 0.25 0"/>
<feBlend mode="normal" in2="BackgroundImageFix" result="effect1_dropShadow_2110_2136"/>
<feBlend mode="normal" in="SourceGraphic" in2="effect1_dropShadow_2110_2136" result="shape"/>
</filter>
</defs>
</svg>
